<svg width="24" height="24" viewBox="0 0 24 24" fill="none" xmlns="http://www.w3.org/2000/svg">
<path d="M19.5525 2.9974C19.3118 3.01492 19.0754 3.0714 18.8528 3.16465H18.8498C18.636 3.2494 17.6198 3.6769 16.0748 4.3249L10.5383 6.65665C6.56553 8.32915 2.66028 9.97615 2.66028 9.97615L2.70678 9.95815C2.70678 9.95815 2.43753 10.0466 2.15628 10.2394C1.98252 10.35 1.83301 10.4946 1.71678 10.6646C1.57878 10.8671 1.46778 11.1769 1.50903 11.4971C1.57653 12.0386 1.92753 12.3634 2.17953 12.5426C2.43453 12.7241 2.67753 12.8089 2.67753 12.8089H2.68353L6.34578 14.0426C6.51003 14.5699 7.46178 17.6989 7.69053 18.4196C7.82553 18.8501 7.95678 19.1194 8.12103 19.3249C8.20053 19.4299 8.29353 19.5176 8.40528 19.5882C8.46337 19.6219 8.52532 19.6486 8.58978 19.6676L8.55228 19.6586C8.56353 19.6616 8.57253 19.6707 8.58078 19.6736C8.61078 19.6819 8.63103 19.6849 8.66928 19.6909C9.24903 19.8664 9.71478 19.5064 9.71478 19.5064L9.74103 19.4854L11.9033 17.5166L15.5273 20.2969L15.6098 20.3321C16.365 20.6636 17.13 20.4791 17.5343 20.1536C17.9415 19.8259 18.0998 19.4066 18.0998 19.4066L18.126 19.3391L20.9265 4.9924C21.006 4.6384 21.0263 4.3069 20.9385 3.98515C20.848 3.65952 20.6391 3.37945 20.3528 3.1999C20.1123 3.05373 19.8335 2.98318 19.5525 2.9974ZM19.4768 4.5349C19.4738 4.58215 19.4828 4.5769 19.4618 4.66765V4.6759L16.6875 18.8734C16.6755 18.8936 16.6553 18.9379 16.5998 18.9821C16.5413 19.0286 16.4948 19.0579 16.251 18.9611L11.8185 15.5629L9.14103 18.0034L9.70353 14.4109L16.9455 7.6609C17.244 7.3834 17.1443 7.3249 17.1443 7.3249C17.1653 6.9844 16.6935 7.22515 16.6935 7.22515L7.56153 12.8824L7.55853 12.8674L3.18153 11.3936V11.3906L3.17028 11.3884C3.17795 11.3858 3.18546 11.3828 3.19278 11.3794L3.21678 11.3674L3.24003 11.3591C3.24003 11.3591 7.14828 9.71215 11.121 8.03965C13.11 7.2019 15.114 6.35815 16.6553 5.70715C17.5693 5.3224 18.4843 4.9399 19.4003 4.55965C19.4618 4.53565 19.4325 4.53565 19.4768 4.53565V4.5349Z" fill="white"/>
</svg>
