<svg width="87" height="34" viewBox="0 0 87 34" fill="none" xmlns="http://www.w3.org/2000/svg">
<path d="M72.5146 24.926V20.2227C75.6737 20.7044 76.6725 23.1906 78.6842 24.926H83.8125C82.5303 22.0636 80.6173 19.5283 78.2167 17.5098C80.0583 14.974 82.0133 12.5869 82.9696 8.96729H78.3087C76.4812 11.7369 75.5179 14.981 72.5146 17.1202V8.96729H65.75L67.365 10.9648V18.0835C64.7442 17.779 62.9733 12.9835 61.0537 8.96729H56.1875C57.9583 14.3931 61.6842 26.3002 72.5146 24.926V24.926Z" stroke="white" stroke-width="0.708333" stroke-linecap="round" stroke-linejoin="round"/>
<path d="M46.5525 6.9974C46.3118 7.01492 46.0754 7.0714 45.8528 7.16465H45.8498C45.636 7.2494 44.6198 7.6769 43.0748 8.3249L37.5383 10.6566C33.5655 12.3291 29.6603 13.9761 29.6603 13.9761L29.7068 13.9581C29.7068 13.9581 29.4375 14.0466 29.1563 14.2394C28.9825 14.35 28.833 14.4946 28.7168 14.6646C28.5788 14.8671 28.4678 15.1769 28.509 15.4971C28.5765 16.0386 28.9275 16.3634 29.1795 16.5426C29.4345 16.7241 29.6775 16.8089 29.6775 16.8089H29.6835L33.3458 18.0426C33.51 18.5699 34.4618 21.6989 34.6905 22.4196C34.8255 22.8501 34.9568 23.1194 35.121 23.3249C35.2005 23.4299 35.2935 23.5176 35.4053 23.5882C35.4634 23.6219 35.5253 23.6486 35.5898 23.6676L35.5523 23.6586C35.5635 23.6616 35.5725 23.6707 35.5808 23.6736C35.6108 23.6819 35.631 23.6849 35.6693 23.6909C36.249 23.8664 36.7148 23.5064 36.7148 23.5064L36.741 23.4854L38.9033 21.5166L42.5273 24.2969L42.6098 24.3321C43.365 24.6636 44.13 24.4791 44.5343 24.1536C44.9415 23.8259 45.0998 23.4066 45.0998 23.4066L45.126 23.3391L47.9265 8.9924C48.006 8.6384 48.0263 8.3069 47.9385 7.98515C47.848 7.65952 47.6391 7.37945 47.3528 7.1999C47.1123 7.05373 46.8335 6.98318 46.5525 6.9974ZM46.4768 8.5349C46.4738 8.58215 46.4828 8.5769 46.4618 8.66765V8.6759L43.6875 22.8734C43.6755 22.8936 43.6553 22.9379 43.5998 22.9821C43.5413 23.0286 43.4948 23.0579 43.251 22.9611L38.8185 19.5629L36.141 22.0034L36.7035 18.4109L43.9455 11.6609C44.244 11.3834 44.1443 11.3249 44.1443 11.3249C44.1653 10.9844 43.6935 11.2251 43.6935 11.2251L34.5615 16.8824L34.5585 16.8674L30.1815 15.3936V15.3906L30.1703 15.3884C30.178 15.3858 30.1855 15.3828 30.1928 15.3794L30.2168 15.3674L30.24 15.3591C30.24 15.3591 34.1483 13.7121 38.121 12.0396C40.11 11.2019 42.114 10.3581 43.6553 9.70715C44.5693 9.3224 45.4843 8.9399 46.4003 8.55965C46.4618 8.53565 46.4325 8.53565 46.4768 8.53565V8.5349Z" fill="white"/>
<g clip-path="url(#clip0_328_30)">
<path fill-rule="evenodd" clip-rule="evenodd" d="M14.5125 17.985C14.2642 17.8609 13.0467 17.2625 12.82 17.1792C12.5933 17.0967 12.4283 17.0559 12.2625 17.3042C12.0975 17.5509 11.6233 18.1092 11.4792 18.2742C11.3342 18.44 11.19 18.46 10.9425 18.3367C10.695 18.2117 9.89667 17.9509 8.95083 17.1075C8.215 16.4509 7.7175 15.64 7.57333 15.3917C7.42917 15.1442 7.5575 15.01 7.68167 14.8867C7.79333 14.7759 7.92917 14.5975 8.05333 14.4534C8.1775 14.3084 8.21833 14.205 8.30083 14.0392C8.38417 13.8742 8.3425 13.73 8.28 13.6059C8.21833 13.4817 7.72333 12.2625 7.51667 11.7667C7.31583 11.2842 7.11167 11.35 6.96 11.3417C6.815 11.335 6.65 11.3334 6.485 11.3334C6.32 11.3334 6.05167 11.395 5.825 11.6434C5.5975 11.8909 4.95833 12.49 4.95833 13.7092C4.95833 14.9275 5.845 16.105 5.96917 16.2709C6.09333 16.4359 7.715 18.9375 10.1992 20.01C10.7908 20.265 11.2517 20.4175 11.6108 20.5309C12.2042 20.72 12.7442 20.6934 13.1708 20.6292C13.6458 20.5584 14.6358 20.03 14.8425 19.4517C15.0483 18.8734 15.0483 18.3775 14.9867 18.2742C14.925 18.1709 14.76 18.1092 14.5117 17.985H14.5125ZM9.99417 24.1542H9.99083C8.51536 24.1545 7.06698 23.7578 5.7975 23.0059L5.4975 22.8275L2.37917 23.6459L3.21167 20.6059L3.01583 20.2942C2.19095 18.9812 1.75441 17.4615 1.75667 15.9109C1.75833 11.3692 5.45333 7.6742 9.9975 7.6742C12.1975 7.6742 14.2658 8.53253 15.8208 10.0892C16.5878 10.853 17.1957 11.7613 17.6094 12.7616C18.0231 13.7619 18.2343 14.8343 18.2308 15.9167C18.2292 20.4584 14.5342 24.1542 9.99417 24.1542ZM17.0042 8.9067C16.086 7.98247 14.9935 7.24965 13.7901 6.7507C12.5866 6.25175 11.2961 5.9966 9.99333 6.00003C4.53167 6.00003 0.085 10.4459 0.0833333 15.91C0.0808025 17.649 0.536979 19.3579 1.40583 20.8642L0 26L5.25333 24.6217C6.70656 25.4135 8.33508 25.8283 9.99 25.8284H9.99417C15.4558 25.8284 19.9025 21.3825 19.9042 15.9175C19.9082 14.6153 19.654 13.3251 19.1562 12.1217C18.6584 10.9183 17.927 9.82559 17.0042 8.9067Z" fill="white"/>
</g>
<defs>
<clipPath id="clip0_328_30">
<rect width="20" height="20" fill="white" transform="translate(0 6)"/>
</clipPath>
</defs>
</svg>
