<svg width="90" height="37" viewBox="0 0 90 37" fill="none" xmlns="http://www.w3.org/2000/svg">
<path d="M12.62 14.2C11.78 14.2 10.9733 14.0333 10.2 13.7C9.44 13.3533 8.62 12.72 7.74 11.8L4.52 8.44V14H1.92L1.9 3.4C1.9 2.72 1.80667 2.22 1.62 1.9C1.43333 1.56667 1.06 1.4 0.5 1.4H0.3V0.799999H2.7C3.16667 0.799999 3.52667 0.88 3.78 1.04C4.04667 1.2 4.23333 1.46667 4.34 1.84C4.46 2.21333 4.52 2.73333 4.52 3.4V7.2L7.98 2.9C8.47333 2.26 9 1.75333 9.56 1.38C10.1333 0.993333 10.7867 0.799999 11.52 0.799999H12.92V1.5C12.0933 1.5 11.38 1.60667 10.78 1.82C10.1933 2.02 9.68667 2.38667 9.26 2.92L6.28 6.6L10.9 11.4C11.3933 11.9467 11.9467 12.4267 12.56 12.84C13.1867 13.24 13.6933 13.4667 14.08 13.52V14C13.68 14.1333 13.1933 14.2 12.62 14.2ZM17.8472 14.2C16.7672 14.2 15.9272 13.96 15.3272 13.48C14.7405 12.9867 14.4472 12.3267 14.4472 11.5C14.4472 10.8333 14.6005 10.28 14.9072 9.84C15.2272 9.4 15.7805 9.06667 16.5672 8.84C17.3539 8.61333 18.4472 8.5 19.8472 8.5H20.1472C20.1472 7.34 19.9872 6.52 19.6672 6.04C19.3472 5.54667 18.8739 5.3 18.2472 5.3C17.7272 5.3 17.3005 5.42667 16.9672 5.68C16.6339 5.93333 16.3939 6.40667 16.2472 7.1H15.1472C15.1472 6.64667 15.1739 6.26 15.2272 5.94C15.2939 5.62 15.4339 5.34 15.6472 5.1C16.0605 4.63333 17.0605 4.4 18.6472 4.4C19.9805 4.4 20.9939 4.75333 21.6872 5.46C22.3939 6.15333 22.7472 7.2 22.7472 8.6V14H21.0472L20.3472 13.1H20.2472C20.1272 13.2867 19.9405 13.4733 19.6872 13.66C19.2339 14.02 18.6205 14.2 17.8472 14.2ZM18.4472 13.2C18.7272 13.2 18.9672 13.1467 19.1672 13.04C19.3672 12.92 19.5605 12.76 19.7472 12.56C19.9205 12.3733 20.0539 12.1533 20.1472 11.9V9.4H19.8472C18.9005 9.4 18.2139 9.57333 17.7872 9.92C17.3605 10.2533 17.1472 10.78 17.1472 11.5C17.1472 12.0467 17.2605 12.4667 17.4872 12.76C17.7139 13.0533 18.0339 13.2 18.4472 13.2ZM25.3891 7.2C25.3891 6.52 25.2957 6.02 25.1091 5.7C24.9357 5.36667 24.5691 5.2 24.0091 5.2H23.8091V4.6H25.7891C26.2557 4.6 26.6157 4.66667 26.8691 4.8C27.1224 4.92 27.3224 5.13333 27.4691 5.44C28.2557 4.74667 29.1624 4.4 30.1891 4.4C31.5357 4.4 32.5691 4.86 33.2891 5.78C34.0224 6.68667 34.3891 7.86 34.3891 9.3C34.3891 10.74 34.0157 11.92 33.2691 12.84C32.5357 13.7467 31.4757 14.2 30.0891 14.2C29.5424 14.2 29.0291 14.1 28.5491 13.9C28.3357 13.82 28.1491 13.72 27.9891 13.6V17.8H25.3891V7.2ZM29.6891 13.3C31.0224 13.3 31.6891 11.9667 31.6891 9.3C31.6891 8.07333 31.5357 7.1 31.2291 6.38C30.9224 5.66 30.4424 5.3 29.7891 5.3C29.0424 5.3 28.3957 5.57333 27.8491 6.12L27.9091 6.4C27.9624 6.56 27.9891 6.78667 27.9891 7.08V12.7C28.1357 12.82 28.2957 12.92 28.4691 13C28.8424 13.2 29.2491 13.3 29.6891 13.3ZM36.7167 7.2C36.7167 6.52 36.6234 6.02 36.4367 5.7C36.2501 5.36667 35.8767 5.2 35.3167 5.2H35.1167V4.6H37.5167C37.9967 4.6 38.3634 4.68 38.6167 4.84C38.8701 5 39.0501 5.26667 39.1567 5.64C39.2634 6 39.3167 6.52 39.3167 7.2V11.5L42.9167 4.6H45.3167V14H42.7167V7.1L39.1167 14H36.7167V7.2ZM48.1034 7.2C48.1034 6.52 48.0101 6.02 47.8234 5.7C47.6368 5.36667 47.2634 5.2 46.7034 5.2H46.5034V4.6H48.9034C49.3834 4.6 49.7501 4.68 50.0034 4.84C50.2568 5 50.4368 5.26667 50.5434 5.64C50.6501 6 50.7034 6.52 50.7034 7.2V8.8H53.9034V4.6H56.5034V11.4C56.5034 12.08 56.5968 12.5867 56.7834 12.92C56.9701 13.24 57.3434 13.4 57.9034 13.4H58.1034V14H55.7034C55.2234 14 54.8568 13.9267 54.6034 13.78C54.3501 13.62 54.1701 13.36 54.0634 13C53.9568 12.6267 53.9034 12.0933 53.9034 11.4V9.7H50.7034V14H48.1034V7.2ZM62.0659 14.2C60.9859 14.2 60.1459 13.96 59.5459 13.48C58.9593 12.9867 58.6659 12.3267 58.6659 11.5C58.6659 10.8333 58.8193 10.28 59.1259 9.84C59.4459 9.4 59.9993 9.06667 60.7859 8.84C61.5726 8.61333 62.6659 8.5 64.0659 8.5H64.3659C64.3659 7.34 64.2059 6.52 63.8859 6.04C63.5659 5.54667 63.0926 5.3 62.4659 5.3C61.9459 5.3 61.5193 5.42667 61.1859 5.68C60.8526 5.93333 60.6126 6.40667 60.4659 7.1H59.3659C59.3659 6.64667 59.3926 6.26 59.4459 5.94C59.5126 5.62 59.6526 5.34 59.8659 5.1C60.2793 4.63333 61.2793 4.4 62.8659 4.4C64.1993 4.4 65.2126 4.75333 65.9059 5.46C66.6126 6.15333 66.9659 7.2 66.9659 8.6V14H65.2659L64.5659 13.1H64.4659C64.3459 13.2867 64.1593 13.4733 63.9059 13.66C63.4526 14.02 62.8393 14.2 62.0659 14.2ZM62.6659 13.2C62.9459 13.2 63.1859 13.1467 63.3859 13.04C63.5859 12.92 63.7793 12.76 63.9659 12.56C64.1393 12.3733 64.2726 12.1533 64.3659 11.9V9.4H64.0659C63.1193 9.4 62.4326 9.57333 62.0059 9.92C61.5793 10.2533 61.3659 10.78 61.3659 11.5C61.3659 12.0467 61.4793 12.4667 61.7059 12.76C61.9326 13.0533 62.2526 13.2 62.6659 13.2ZM7.34 36.4C5.96667 36.4 4.78 36.1067 3.78 35.52C2.79333 34.92 2.04 34.1067 1.52 33.08C1 32.0533 0.74 30.8933 0.74 29.6C0.74 28.2667 1.02667 27.0533 1.6 25.96C2.17333 24.8533 2.96 23.9867 3.96 23.36C4.97333 22.72 6.1 22.4 7.34 22.4C8.51333 22.4 9.49333 22.5533 10.28 22.86C11.0667 23.1533 11.6667 23.54 12.08 24.02C12.32 24.3267 12.4667 24.7067 12.52 25.16C12.5733 25.6133 12.6 26.2467 12.6 27.06H12C11.7467 25.8333 11.28 24.9 10.6 24.26C9.92 23.62 9.03333 23.3 7.94 23.3C6.58 23.3 5.50667 23.78 4.72 24.74C3.93333 25.7 3.54 27.32 3.54 29.6C3.54 31.2933 3.9 32.7 4.62 33.82C5.34 34.94 6.44667 35.5 7.94 35.5C8.87333 35.5 9.72667 35.2533 10.5 34.76C11.2867 34.2667 11.92 33.56 12.4 32.64L13.1 33.18C12.46 34.3 11.6867 35.12 10.78 35.64C9.87333 36.1467 8.72667 36.4 7.34 36.4ZM18.9142 36.2C17.9942 36.2 17.1876 35.9867 16.4942 35.56C15.8009 35.1333 15.2609 34.5533 14.8742 33.82C14.5009 33.0733 14.3142 32.2333 14.3142 31.3C14.3142 30.26 14.5009 29.3733 14.8742 28.64C15.2609 27.9067 15.7876 27.3533 16.4542 26.98C17.1209 26.5933 17.8742 26.4 18.7142 26.4C19.5409 26.4 20.2876 26.5667 20.9542 26.9C21.6209 27.2333 22.1476 27.7067 22.5342 28.32C22.9209 28.92 23.1142 29.6133 23.1142 30.4C23.1142 30.6533 23.1009 30.94 23.0742 31.26L23.0342 31.66H17.0142C17.0142 32.9267 17.2076 33.8533 17.5942 34.44C17.9809 35.0133 18.5209 35.3 19.2142 35.3C19.8542 35.3 20.3876 35.16 20.8142 34.88C21.2542 34.5867 21.6742 34.1733 22.0742 33.64L22.6942 34.1C22.3076 34.7 21.8209 35.2 21.2342 35.6C20.6609 36 19.8876 36.2 18.9142 36.2ZM20.4142 30.76C20.4142 29.5067 20.2676 28.62 19.9742 28.1C19.6809 27.5667 19.2609 27.3 18.7142 27.3C18.2076 27.3 17.7942 27.5733 17.4742 28.12C17.1676 28.6533 17.0142 29.5333 17.0142 30.76H20.4142ZM37.03 36.5C35.6033 36.5 34.57 36.1867 33.93 35.56C33.29 34.92 32.97 33.9333 32.97 32.6V29.12L30.09 36H29.43L25.95 28.92V35.98H24.95V26.6H27.39L30.35 32.62L32.95 26.4H35.57V32.6C35.57 33.7333 35.6767 34.56 35.89 35.08C36.1033 35.6 36.4833 35.9067 37.03 36V36.5ZM42.4103 36.2C41.4903 36.2 40.6836 35.9867 39.9903 35.56C39.297 35.1333 38.757 34.5533 38.3703 33.82C37.997 33.0733 37.8103 32.2333 37.8103 31.3C37.8103 30.26 37.997 29.3733 38.3703 28.64C38.757 27.9067 39.2836 27.3533 39.9503 26.98C40.617 26.5933 41.3703 26.4 42.2103 26.4C43.037 26.4 43.7836 26.5667 44.4503 26.9C45.117 27.2333 45.6436 27.7067 46.0303 28.32C46.417 28.92 46.6103 29.6133 46.6103 30.4C46.6103 30.6533 46.597 30.94 46.5703 31.26L46.5303 31.66H40.5103C40.5103 32.9267 40.7036 33.8533 41.0903 34.44C41.477 35.0133 42.017 35.3 42.7103 35.3C43.3503 35.3 43.8836 35.16 44.3103 34.88C44.7503 34.5867 45.1703 34.1733 45.5703 33.64L46.1903 34.1C45.8036 34.7 45.317 35.2 44.7303 35.6C44.157 36 43.3836 36.2 42.4103 36.2ZM43.9103 30.76C43.9103 29.5067 43.7636 28.62 43.4703 28.1C43.177 27.5667 42.757 27.3 42.2103 27.3C41.7036 27.3 41.2903 27.5733 40.9703 28.12C40.6636 28.6533 40.5103 29.5333 40.5103 30.76H43.9103ZM40.3703 25.5C40.0236 25.5 39.7503 25.3933 39.5503 25.18C39.3503 24.9667 39.2503 24.7 39.2503 24.38C39.2503 24.06 39.3503 23.7933 39.5503 23.58C39.7503 23.3667 40.0236 23.26 40.3703 23.26C40.717 23.26 40.9903 23.3667 41.1903 23.58C41.3903 23.7933 41.4903 24.06 41.4903 24.38C41.4903 24.7 41.3903 24.9667 41.1903 25.18C40.9903 25.3933 40.717 25.5 40.3703 25.5ZM43.9703 25.5C43.6236 25.5 43.3503 25.3933 43.1503 25.18C42.9503 24.9667 42.8503 24.7 42.8503 24.38C42.8503 24.06 42.9503 23.7933 43.1503 23.58C43.3503 23.3667 43.6236 23.26 43.9703 23.26C44.317 23.26 44.5903 23.3667 44.7903 23.58C44.9903 23.7933 45.0903 24.06 45.0903 24.38C45.0903 24.7 44.9903 24.9667 44.7903 25.18C44.5903 25.3933 44.317 25.5 43.9703 25.5ZM48.8261 29.2C48.8261 28.52 48.7328 28.02 48.5461 27.7C48.3594 27.3667 47.9861 27.2 47.4261 27.2H47.2261V26.6H49.6261C50.1061 26.6 50.4728 26.68 50.7261 26.84C50.9794 27 51.1594 27.2667 51.2661 27.64C51.3728 28 51.4261 28.52 51.4261 29.2V30.8H54.6261V26.6H57.2261V33.4C57.2261 34.08 57.3194 34.5867 57.5061 34.92C57.6928 35.24 58.0661 35.4 58.6261 35.4H58.8261V36H56.4261C55.9461 36 55.5794 35.9267 55.3261 35.78C55.0728 35.62 54.8928 35.36 54.7861 35C54.6794 34.6267 54.6261 34.0933 54.6261 33.4V31.7H51.4261V36H48.8261V29.2ZM64.3286 36.2C63.3553 36.2 62.5019 35.9867 61.7686 35.56C61.0486 35.12 60.4953 34.5333 60.1086 33.8C59.7219 33.0533 59.5286 32.22 59.5286 31.3C59.5286 30.38 59.7219 29.5533 60.1086 28.82C60.4953 28.0733 61.0486 27.4867 61.7686 27.06C62.5019 26.62 63.3553 26.4 64.3286 26.4C65.3019 26.4 66.1486 26.62 66.8686 27.06C67.6019 27.4867 68.1619 28.0733 68.5486 28.82C68.9353 29.5533 69.1286 30.38 69.1286 31.3C69.1286 32.22 68.9353 33.0533 68.5486 33.8C68.1619 34.5333 67.6019 35.12 66.8686 35.56C66.1486 35.9867 65.3019 36.2 64.3286 36.2ZM64.3286 35.3C65.0086 35.3 65.5286 34.9333 65.8886 34.2C66.2486 33.4667 66.4286 32.5 66.4286 31.3C66.4286 30.1 66.2486 29.1333 65.8886 28.4C65.5286 27.6667 65.0086 27.3 64.3286 27.3C63.6486 27.3 63.1286 27.6667 62.7686 28.4C62.4086 29.1333 62.2286 30.1 62.2286 31.3C62.2286 32.5 62.4086 33.4667 62.7686 34.2C63.1286 34.9333 63.6486 35.3 64.3286 35.3ZM71.3238 29.2C71.3238 28.52 71.2304 28.02 71.0438 27.7C70.8571 27.3667 70.4838 27.2 69.9238 27.2H69.8237V26.6H75.1838C76.4238 26.6 77.4038 26.8067 78.1238 27.22C78.8571 27.6333 79.2238 28.2267 79.2238 29C79.2238 29.5867 79.0038 30.06 78.5638 30.42C78.1238 30.7667 77.4971 30.9933 76.6838 31.1C77.5771 31.22 78.2904 31.48 78.8238 31.88C79.3571 32.2667 79.6238 32.7733 79.6238 33.4C79.6238 35.1333 78.1438 36 75.1838 36H71.3238V29.2ZM74.6238 30.6C75.1571 30.6 75.6038 30.46 75.9638 30.18C76.3371 29.8867 76.5238 29.4933 76.5238 29C76.5238 28.48 76.3504 28.0867 76.0038 27.82C75.6704 27.54 75.2771 27.4 74.8238 27.4C74.5038 27.4 74.2038 27.4467 73.9238 27.54V30.6H74.6238ZM74.8238 35.2C75.4504 35.2 75.9571 35.0467 76.3438 34.74C76.7304 34.42 76.9238 33.9733 76.9238 33.4C76.9238 32.7733 76.7171 32.3 76.3038 31.98C75.9038 31.66 75.3438 31.5 74.6238 31.5H73.9238V35.06C74.2038 35.1533 74.5038 35.2 74.8238 35.2ZM84.312 36.2C83.232 36.2 82.392 35.96 81.792 35.48C81.2054 34.9867 80.912 34.3267 80.912 33.5C80.912 32.8333 81.0654 32.28 81.372 31.84C81.692 31.4 82.2454 31.0667 83.032 30.84C83.8187 30.6133 84.912 30.5 86.312 30.5H86.612C86.612 29.34 86.452 28.52 86.132 28.04C85.812 27.5467 85.3387 27.3 84.712 27.3C84.192 27.3 83.7654 27.4267 83.432 27.68C83.0987 27.9333 82.8587 28.4067 82.712 29.1H81.612C81.612 28.6467 81.6387 28.26 81.692 27.94C81.7587 27.62 81.8987 27.34 82.112 27.1C82.5254 26.6333 83.5254 26.4 85.112 26.4C86.4454 26.4 87.4587 26.7533 88.152 27.46C88.8587 28.1533 89.212 29.2 89.212 30.6V36H87.512L86.812 35.1H86.712C86.592 35.2867 86.4054 35.4733 86.152 35.66C85.6987 36.02 85.0854 36.2 84.312 36.2ZM84.912 35.2C85.192 35.2 85.432 35.1467 85.632 35.04C85.832 34.92 86.0254 34.76 86.212 34.56C86.3854 34.3733 86.5187 34.1533 86.612 33.9V31.4H86.312C85.3654 31.4 84.6787 31.5733 84.252 31.92C83.8254 32.2533 83.612 32.78 83.612 33.5C83.612 34.0467 83.7254 34.4667 83.952 34.76C84.1787 35.0533 84.4987 35.2 84.912 35.2Z" fill="white"/>
</svg>
